<svg width="24" height="24" viewBox="0 0 24 24" fill="none" xmlns="http://www.w3.org/2000/svg">
<path d="M16.8745 4C18.1022 4 19.2611 4.48852 20.1187 5.40723L20.1304 5.41992L20.1431 5.43164C22.0025 7.29112 22.0025 10.2587 20.1431 12.1182L20.1401 12.1211L11.9995 20.3291L3.85986 12.1211L3.85693 12.1182L3.68799 11.9404C1.99925 10.0741 2.05558 7.23299 3.85693 5.43164L3.93213 5.35742C5.71451 3.57504 8.67162 3.57471 10.4556 5.41992L10.4614 5.42578L10.4683 5.43164L11.2925 6.25684L11.9995 6.96387L12.7065 6.25684L13.6069 5.35742C14.4714 4.49291 15.6429 4.0001 16.8745 4Z" stroke="#FF75FA" stroke-width="2"/>
</svg>
