<svg width="32" height="32" viewBox="0 0 32 32" fill="none" xmlns="http://www.w3.org/2000/svg">
<rect x="0.5" y="0.5" width="31" height="31" rx="15.5" stroke="#FFAF03"/>
<path d="M10 24H22V20.9643C21.9987 19.8375 21.5558 18.7573 20.7684 17.9605C19.981 17.1638 18.9135 16.7156 17.8 16.7143H14.2C13.0865 16.7156 12.019 17.1638 11.2316 17.9605C10.4442 18.7573 10.0013 19.8375 10 20.9643V24Z" fill="#FFAF03"/>
<path d="M11.8 11.25C11.8 12.0906 12.0463 12.9123 12.5078 13.6112C12.9693 14.3101 13.6253 14.8548 14.3927 15.1765C15.1602 15.4982 16.0047 15.5823 16.8194 15.4183C17.6341 15.2543 18.3825 14.8496 18.9698 14.2552C19.5572 13.6608 19.9572 12.9036 20.1193 12.0791C20.2814 11.2547 20.1982 10.4002 19.8803 9.6236C19.5624 8.84701 19.0241 8.18325 18.3334 7.71625C17.6427 7.24926 16.8307 7 16 7C14.8861 7 13.8178 7.44777 13.0302 8.2448C12.2425 9.04183 11.8 10.1228 11.8 11.25Z" fill="#FFAF03"/>
</svg>
