<svg width="32" height="32" viewBox="0 0 32 32" fill="none" xmlns="http://www.w3.org/2000/svg">
<rect x="0.5" y="0.5" width="31" height="31" rx="15.5" stroke="#757575"/>
<path d="M15.78 22.18H12V9.06H15.78V7H17.12V9.06H17.66C18.7933 9.06 19.6733 9.36667 20.3 9.98C20.9267 10.58 21.24 11.3933 21.24 12.42C21.24 12.86 21.18 13.24 21.06 13.56C20.9533 13.88 20.7933 14.1533 20.58 14.38C20.38 14.6067 20.14 14.7933 19.86 14.94C19.58 15.0733 19.2733 15.1733 18.94 15.24V15.34C19.3 15.3933 19.6467 15.4867 19.98 15.62C20.3133 15.74 20.6133 15.92 20.88 16.16C21.1467 16.4 21.36 16.7067 21.52 17.08C21.68 17.4533 21.76 17.9067 21.76 18.44C21.76 18.9733 21.6733 19.4733 21.5 19.94C21.3267 20.3933 21.08 20.7867 20.76 21.12C20.44 21.4533 20.06 21.7133 19.62 21.9C19.1933 22.0867 18.72 22.18 18.2 22.18H17.12V24.28H15.78V22.18ZM17.8 20.82C18.56 20.82 19.1467 20.6467 19.56 20.3C19.9733 19.94 20.18 19.44 20.18 18.8V18.06C20.18 17.4067 19.9733 16.9067 19.56 16.56C19.1467 16.2 18.56 16.02 17.8 16.02H17.08V20.82H17.8ZM17.64 14.84C18.32 14.84 18.82 14.68 19.14 14.36C19.4733 14.0267 19.64 13.56 19.64 12.96V12.28C19.64 11.68 19.4733 11.22 19.14 10.9C18.82 10.58 18.32 10.42 17.64 10.42H17.08V14.84H17.64ZM15.82 20.82V16.02H13.52V20.82H15.82ZM15.82 14.84V10.42H13.52V14.84H15.82Z" fill="#757575"/>
</svg>
